<svg width="1146" height="346" viewBox="0 0 1146 346" fill="none" xmlns="http://www.w3.org/2000/svg">
<rect width="1146" height="346" fill="white"/>
<g clip-path="url(#clip0_645_388)">
<path d="M150.226 102.837C149.364 107.163 150.35 112.624 146.018 115.151C141.585 117.835 135.682 118.221 130.544 118.653C125.873 118.969 122.647 119.407 119.036 116.207C117.443 114.904 115.933 112.947 115.81 110.936C114.763 102.749 117.949 81.7951 130.148 69.789C136.952 62.6598 146.404 57.4382 155.645 55.0171C158.256 54.2633 161.385 54.0459 164.373 53.8008C178.03 52.7772 196.373 54.7435 209.61 66.5518C215.639 71.9408 221.319 79.1686 224.607 94.6671C225.563 99.6694 226.069 104.784 225.971 109.733C225.864 115.181 225.052 121.492 223.871 126.684C223.293 129.526 221.455 132.872 219.766 135.697C214.744 144.326 207.272 151.509 200.715 159.042C198.712 161.312 196.791 163.466 194.952 165.763C193.197 168.014 191.834 169.752 191.008 172.845C189.877 176.996 190.541 181.367 190.478 185.619C190.433 188.831 189.115 192.03 186.457 193.939C183.011 196.48 177.793 196.348 173.616 196.853C168.421 197.233 162.808 198.415 159.632 193.825C158.088 191.736 157.823 189.046 157.65 186.489C157.365 182.554 157.051 176.882 157.218 172.328C157.329 168.502 157.754 164.711 159.518 161.311C162.357 155.603 166.22 149.712 170.822 145.105C174.555 141.217 179.231 136.38 183.384 131.516C187.979 126.298 192.135 119.961 192.81 112.8C193.148 109.942 192.954 106.778 192.598 104.176C192.284 101.96 191.932 100.324 191.251 98.7023C189.216 94.1064 184.55 89.7946 179.641 87.6719C174.774 85.542 169.01 85.4344 164.03 87.2595C156.769 90.0142 151.51 95.7577 150.24 102.794L150.232 102.84L150.226 102.837Z" fill="#4DD7CA"/>
<path d="M160.881 232.287C163.731 241.616 173.585 246.874 182.891 244.031C192.196 241.188 197.43 231.32 194.579 221.992C191.729 212.663 181.875 207.405 172.57 210.248C163.264 213.091 158.031 222.958 160.881 232.287Z" fill="#FFCE31"/>
</g>
<g clip-path="url(#clip1_645_388)">
<path d="M112.862 225.2C113.724 220.874 112.737 215.414 117.069 212.886C121.502 210.202 127.405 209.816 132.543 209.384C137.214 209.068 140.44 208.63 144.051 211.83C145.645 213.133 147.154 215.09 147.278 217.102C148.324 225.288 145.138 246.242 132.939 258.248C126.136 265.377 116.683 270.599 107.442 273.02C104.832 273.774 101.702 273.991 98.7149 274.236C85.057 275.26 66.714 273.294 53.4778 261.485C47.4484 256.096 41.7687 248.869 38.48 233.37C37.5249 228.368 37.0184 223.253 37.1166 218.304C37.2236 212.857 38.0356 206.546 39.2165 201.353C39.7949 198.512 41.6326 195.165 43.3212 192.34C48.3431 183.711 55.8152 176.528 62.3727 168.995C64.3756 166.726 66.2964 164.571 68.1357 162.274C69.8904 160.023 71.2535 158.285 72.0799 155.193C73.2106 151.041 72.5464 146.67 72.6092 142.418C72.6541 139.206 73.972 136.007 76.6309 134.098C80.0766 131.557 85.2942 131.689 89.4712 131.184C94.6659 130.804 100.279 129.623 103.455 134.212C104.999 136.301 105.265 138.991 105.437 141.549C105.723 145.483 106.036 151.155 105.869 155.709C105.758 159.535 105.333 163.326 103.569 166.726C100.731 172.434 96.8678 178.325 92.2657 182.932C88.5327 186.82 83.8564 191.657 79.7039 196.521C75.1083 201.739 70.9528 208.076 70.2777 215.237C69.9393 218.095 70.1335 221.259 70.4892 223.861C70.8032 226.077 71.1555 227.713 71.8367 229.335C73.8712 233.931 78.5372 238.243 83.446 240.365C88.3133 242.495 94.0774 242.603 99.0572 240.778C106.319 238.023 111.578 232.279 112.848 225.243L112.855 225.197L112.862 225.2Z" fill="#F89087"/>
<path d="M102.206 95.75C99.3561 86.4213 89.5021 81.1636 80.1966 84.0066C70.891 86.8496 65.6579 96.7167 68.5079 106.045C71.358 115.374 81.2121 120.632 90.5176 117.789C99.8231 114.946 105.056 105.079 102.206 95.75Z" fill="#FFCE31"/>
</g>
<path d="M1032.06 154.888C1032.33 153.51 1032.54 152.132 1032.68 150.754C1032.81 149.376 1032.95 147.929 1033.09 146.413V144.966C1033.09 143.036 1033.23 141.038 1033.5 138.971C1033.78 136.904 1034.12 134.63 1034.54 132.149C1035.09 128.704 1035.64 126.085 1036.19 124.294C1036.74 122.502 1037.29 121.193 1037.84 120.366C1038.53 119.539 1039.29 119.057 1040.12 118.919C1041.08 118.781 1042.25 118.712 1043.63 118.712H1044.46C1047.49 118.712 1049.97 118.299 1051.9 117.472C1053.97 117.196 1056.59 116.99 1059.76 116.852C1062.93 116.576 1065.41 116.232 1067.2 115.818C1071.75 116.094 1074.02 119.884 1074.02 127.188C1074.02 129.669 1073.61 131.46 1072.78 132.563C1071.95 133.527 1070.85 134.216 1069.47 134.63C1068.23 135.043 1066.79 135.319 1065.13 135.457C1063.48 135.594 1061.76 135.87 1059.96 136.284H1059.14C1058.45 136.284 1057.55 136.352 1056.45 136.49C1055.48 136.49 1054.52 136.49 1053.56 136.49C1053 138.557 1052.59 140.487 1052.32 142.278C1052.04 143.932 1051.76 145.862 1051.49 148.067C1051.35 150.134 1051.14 152.752 1050.87 155.922C1050.73 158.954 1050.52 162.813 1050.25 167.498C1050.52 167.636 1051.07 167.705 1051.9 167.705C1053 167.705 1054.38 167.636 1056.04 167.498C1057.69 167.223 1059.69 167.085 1062.03 167.085C1062.72 167.085 1063.41 167.154 1064.1 167.291C1064.93 167.291 1065.75 167.291 1066.58 167.291C1067.68 167.154 1069.27 166.947 1071.33 166.671C1073.54 166.258 1075.47 166.051 1077.12 166.051C1077.95 166.602 1079.19 167.774 1080.84 169.565C1082.63 171.219 1083.53 173.011 1083.53 174.94C1083.53 177.421 1082.01 180.177 1078.98 183.209C1076.91 183.347 1074.85 183.76 1072.78 184.449C1070.71 185 1068.78 185.276 1066.99 185.276C1065.06 185.276 1062.86 185.483 1060.38 185.896C1057.9 186.172 1055.62 186.31 1053.56 186.31C1051.07 186.31 1049.21 186.241 1047.97 186.103C1046.73 185.827 1044.94 185.552 1042.6 185.276C1042.88 187.205 1043.08 189.548 1043.22 192.305C1043.36 194.923 1043.43 197.266 1043.43 199.333C1043.43 200.435 1043.36 201.676 1043.22 203.054C1043.22 204.432 1043.22 205.741 1043.22 206.982L1059.76 207.808C1064.99 207.946 1069.89 208.084 1074.43 208.222C1079.12 208.36 1083.19 208.773 1086.63 209.462C1090.21 210.013 1092.97 211.047 1094.9 212.563C1096.97 214.079 1098 216.284 1098 219.178C1098 221.934 1097.45 224.139 1096.35 225.793C1095.38 227.447 1093.38 228.274 1090.35 228.274C1089.11 228.274 1087.73 228.274 1086.22 228.274C1084.7 228.136 1083.19 227.998 1081.67 227.86C1080.29 227.722 1078.91 227.585 1077.53 227.447C1076.29 227.309 1075.33 227.171 1074.64 227.033C1074.23 227.171 1073.54 227.24 1072.57 227.24C1070.64 227.24 1068.16 227.102 1065.13 226.827C1062.24 226.413 1059 226.206 1055.42 226.206H1051.7C1051.56 226.206 1050.45 226.206 1048.39 226.206C1046.46 226.069 1044.25 226 1041.77 226C1039.29 225.862 1036.81 225.724 1034.33 225.586C1031.99 225.448 1030.4 225.311 1029.58 225.173C1028.89 225.311 1027.44 225.448 1025.23 225.586C1023.17 225.724 1020.89 225.862 1018.41 226C1016.07 226.138 1013.8 226.275 1011.59 226.413C1009.52 226.413 1008.15 226.413 1007.46 226.413H1006.22H999.188C998.086 226.413 997.052 226.413 996.088 226.413C995.123 226.413 994.227 226.344 993.4 226.206L984.098 226.827C978.585 226.827 974.795 226.138 972.728 224.759C970.661 223.381 969.627 221.314 969.627 218.558C969.627 215.113 970.317 212.701 971.695 211.323C973.211 209.945 975.071 209.049 977.276 208.635C979.619 208.222 982.1 208.084 984.718 208.222C987.474 208.222 990.024 207.946 992.367 207.395H1006.22C1010.35 207.395 1013.93 207.326 1016.97 207.188C1020 207.05 1022.48 206.982 1024.41 206.982C1024.41 205.466 1024.34 204.225 1024.2 203.261C1024.2 202.296 1024.2 201.262 1024.2 200.16V198.713C1023.79 197.059 1023.58 194.854 1023.58 192.098C1023.58 188.377 1023.93 185.621 1024.61 183.829C1025.3 182.037 1027.72 180.659 1031.85 179.695C1031.71 178.73 1031.57 177.834 1031.44 177.007C1031.3 176.043 1031.23 175.078 1031.23 174.113C1029.44 174.389 1027.23 174.733 1024.61 175.147C1022 175.56 1019.86 175.836 1018.21 175.974C1017.93 175.974 1017.66 175.974 1017.38 175.974C1017.1 175.836 1016.83 175.767 1016.55 175.767C1015.04 175.767 1013.11 175.974 1010.76 176.387C1008.56 176.801 1006.77 177.007 1005.39 177.007C1004.56 176.594 1003.6 176.387 1002.5 176.387C1001.39 176.387 1000.22 176.318 998.982 176.18C997.879 176.043 996.708 175.836 995.467 175.56C994.227 175.147 992.987 174.389 991.746 173.286L990.299 162.95C990.162 161.848 990.024 160.883 989.886 160.056C989.886 159.092 989.886 158.196 989.886 157.369C989.886 155.853 989.955 154.544 990.093 153.441C990.368 152.201 990.575 151.03 990.713 149.927C990.988 148.687 991.195 147.378 991.333 145.999C991.609 144.621 991.746 143.036 991.746 141.245V137.11C991.746 134.905 991.953 132.632 992.367 130.289C992.918 127.946 994.02 125.672 995.674 123.467C996.777 122.916 998.224 122.571 1000.02 122.433C1001.81 122.158 1003.67 122.02 1005.6 122.02C1008.22 122.02 1010.28 122.227 1011.8 122.64H1014.69C1016.9 122.64 1018.21 122.709 1018.62 122.847L1025.03 123.674C1027.51 126.981 1028.75 129.806 1028.75 132.149C1028.75 134.079 1027.99 135.939 1026.48 137.731C1024.96 139.384 1023.65 140.487 1022.55 141.038C1019.93 141.038 1017.72 141.038 1015.93 141.038C1014.28 140.9 1012.56 140.831 1010.76 140.831C1010.63 142.623 1010.49 144.139 1010.35 145.379C1010.21 146.62 1010.08 147.791 1009.94 148.893C1009.8 149.858 1009.66 150.892 1009.52 151.994C1009.52 152.959 1009.52 154.13 1009.52 155.508C1009.52 156.198 1009.46 156.749 1009.32 157.162C1009.32 157.576 1009.8 157.782 1010.76 157.782C1012.14 157.782 1013.52 157.645 1014.9 157.369C1016.41 157.093 1018 156.818 1019.65 156.542C1021.31 156.266 1023.1 155.991 1025.03 155.715C1027.1 155.302 1029.44 155.026 1032.06 154.888Z" fill="black"/>
<path d="M916.435 183.002C916.711 183.691 916.849 184.38 916.849 185.069C916.849 185.759 916.849 186.517 916.849 187.343C916.849 188.032 916.849 188.79 916.849 189.617C916.849 190.306 916.78 191.064 916.642 191.891L915.608 199.747V202.02C915.608 208.773 914.782 214.01 913.128 217.731C911.612 221.314 909.269 223.106 906.099 223.106C902.93 223.106 900.518 222.21 898.864 220.419C897.348 218.627 896.59 216.629 896.59 214.424C896.59 212.219 896.659 210.496 896.797 209.256C897.073 207.878 897.279 206.362 897.417 204.708C897.693 203.054 897.9 200.918 898.037 198.3C898.313 195.681 898.451 192.029 898.451 187.343C898.451 186.241 898.382 185.414 898.244 184.863C898.244 184.174 898.175 183.485 898.037 182.796C897.9 181.969 897.762 181.004 897.624 179.902C897.624 178.799 897.624 177.214 897.624 175.147C897.624 173.907 897.693 172.804 897.831 171.839C897.968 170.737 898.175 169.772 898.451 168.945C897.899 167.016 897.624 164.673 897.624 161.917C897.624 159.023 897.348 157.025 896.797 155.922C896.659 154.268 896.521 152.408 896.384 150.341C896.384 148.273 896.384 146.413 896.384 144.759C896.384 142.279 897.348 140.556 899.278 139.591C901.345 138.489 903.757 137.938 906.513 137.938C909.683 137.938 912.094 139.04 913.748 141.245C914.437 144.415 914.988 147.584 915.402 150.754C915.953 153.786 916.229 156.542 916.229 159.023C916.229 160.401 916.16 161.435 916.022 162.124C916.298 163.64 916.504 165.224 916.642 166.878C916.78 168.394 916.849 169.979 916.849 171.633C916.849 173.7 916.78 175.767 916.642 177.834C916.504 179.764 916.435 181.486 916.435 183.002ZM860.414 203.674C857.796 204.088 854.833 204.777 851.526 205.741C848.356 206.706 845.048 207.395 841.603 207.809C841.052 207.671 840.294 207.602 839.329 207.602C838.089 207.602 836.711 207.74 835.195 208.015C833.817 208.291 832.301 208.429 830.647 208.429C829.269 208.429 827.753 208.222 826.099 207.809C825.548 208.084 824.997 208.222 824.445 208.222C824.032 208.222 823.618 208.222 823.205 208.222C821.827 208.222 820.449 208.084 819.071 207.809C817.692 207.533 816.245 207.257 814.729 206.982C814.454 206.982 814.247 207.051 814.109 207.188C813.971 207.188 813.834 207.188 813.696 207.188C810.113 207.188 807.012 205.948 804.393 203.468C801.775 200.849 800.466 197.748 800.466 194.165C800.466 193.476 800.535 192.787 800.673 192.098C800.81 191.271 801.017 190.513 801.293 189.824C801.293 188.032 801.224 186.379 801.086 184.863C801.086 183.347 801.086 181.762 801.086 180.108C801.086 179.281 801.086 178.454 801.086 177.628C801.224 176.801 801.293 175.974 801.293 175.147L802.12 162.951C802.533 157.162 802.809 154.131 802.946 153.855C803.222 153.166 804.325 152.132 806.254 150.754C808.183 149.376 810.388 148.687 812.869 148.687C815.487 148.687 818.244 149.72 821.138 151.788C821.138 153.717 821.138 155.44 821.138 156.956C821.276 158.472 821.344 159.85 821.344 161.09C821.344 162.744 821.138 164.811 820.724 167.292C820.449 169.634 820.311 172.184 820.311 174.94C820.311 176.318 820.38 177.352 820.518 178.041C820.104 179.144 819.829 180.453 819.691 181.969C819.553 183.485 819.484 184.932 819.484 186.31V188.377C821.138 188.515 822.86 188.79 824.652 189.204C826.581 189.48 828.649 189.617 830.854 189.617C833.885 189.617 836.435 189.48 838.502 189.204C840.707 188.928 842.774 188.584 844.704 188.17C846.771 187.757 848.838 187.412 850.905 187.137C852.973 186.861 855.453 186.723 858.347 186.723C859.312 187.275 860.621 188.446 862.275 190.237C863.929 192.029 864.756 193.821 864.756 195.612C864.756 197.955 863.308 200.642 860.414 203.674Z" fill="black"/>
<path d="M780.553 192.924L768.77 195.198C766.84 195.474 765.049 195.681 763.395 195.818C761.879 195.956 760.501 196.025 759.261 196.025H757.814L739.829 197.886C739.416 205.19 739.002 211.047 738.589 215.457C738.175 219.867 737.555 223.312 736.728 225.793C735.902 228.135 734.799 229.72 733.421 230.547C732.043 231.374 730.251 231.788 728.046 231.788C725.566 231.788 723.292 231.374 721.224 230.547C719.295 229.72 718.33 227.929 718.33 225.173C718.33 224.483 718.33 223.657 718.33 222.692C718.468 221.727 718.606 220.694 718.744 219.591L720.191 210.702C720.191 210.427 720.122 210.082 719.984 209.669C719.984 209.255 719.984 208.842 719.984 208.428C719.984 207.601 719.984 206.568 719.984 205.327C720.122 203.949 720.191 202.571 720.191 201.193C720.329 199.815 720.398 198.644 720.398 197.679C720.535 196.576 720.604 195.818 720.604 195.405V194.578V186.103C720.742 183.76 720.811 181.899 720.811 180.521C720.949 179.005 721.018 177.834 721.018 177.007C721.018 176.593 720.949 175.767 720.811 174.526C720.673 173.286 720.466 171.908 720.191 170.392C720.053 168.876 719.915 167.429 719.777 166.051C719.64 164.535 719.571 163.295 719.571 162.33C719.571 161.916 719.571 161.572 719.571 161.296C719.708 160.883 719.777 160.538 719.777 160.263C719.502 159.574 719.226 158.678 718.951 157.575C718.675 156.335 718.399 154.957 718.124 153.441L716.883 147.653C716.608 146.964 716.401 146.275 716.263 145.586C716.125 144.897 716.056 144.207 716.056 143.518C716.056 138.695 719.64 136.283 726.806 136.283C730.389 136.283 733.283 137.455 735.488 139.797C736.315 141.727 737.004 144.001 737.555 146.619C738.244 149.238 738.727 151.856 739.002 154.475C739.416 157.093 739.691 159.642 739.829 162.123C740.105 164.466 740.243 166.464 740.243 168.118C740.243 168.807 740.243 169.427 740.243 169.978C740.243 170.53 740.174 171.012 740.036 171.425C740.312 172.115 740.449 172.804 740.449 173.493C740.449 174.182 740.449 174.94 740.449 175.767V179.074C742.517 179.074 744.377 179.005 746.031 178.867C747.685 178.592 749.338 178.316 750.992 178.041C752.646 177.627 754.368 177.351 756.16 177.214C757.952 176.938 759.95 176.8 762.155 176.8H764.015C765.118 176.525 766.496 176.318 768.15 176.18C769.941 176.042 771.733 175.973 773.524 175.973C774.489 175.973 775.661 176.042 777.039 176.18C778.417 176.318 779.657 176.731 780.76 177.42C781.862 178.109 782.827 179.212 783.654 180.728C784.481 182.106 784.894 184.104 784.894 186.723C784.894 189.203 783.447 191.271 780.553 192.924ZM691.25 188.583C691.664 190.099 691.87 191.615 691.87 193.131C691.87 196.714 690.768 200.573 688.563 204.707C684.704 205.534 681.19 205.879 678.02 205.741C674.988 205.603 671.75 205.879 668.304 206.568C665.961 206.981 664.032 207.257 662.516 207.395C661 207.532 659.898 207.601 659.209 207.601H653.834C652.456 207.601 650.389 207.326 647.632 206.774C644.876 206.223 642.189 205.672 639.57 205.121C639.157 204.569 638.606 203.605 637.917 202.227C637.227 200.711 636.538 199.057 635.849 197.265C635.298 195.474 634.747 193.751 634.196 192.097C633.782 190.306 633.575 188.859 633.575 187.756C633.575 187.205 633.575 186.654 633.575 186.103C633.713 185.551 633.782 185 633.782 184.449C633.782 182.795 633.575 181.348 633.162 180.108C632.749 178.867 632.404 177.903 632.128 177.214C632.128 175.56 631.991 174.32 631.715 173.493C631.439 172.666 630.957 170.805 630.268 167.911C629.992 167.222 629.854 166.533 629.854 165.844C629.854 165.017 629.854 164.19 629.854 163.363C629.854 161.296 629.923 159.436 630.061 157.782C630.337 156.128 631.026 154.75 632.128 153.648C633.231 152.407 634.954 151.512 637.296 150.96C639.639 150.271 643.016 149.927 647.426 149.927H649.7C650.526 149.789 651.491 149.72 652.594 149.72C653.834 149.582 655.143 149.513 656.521 149.513C658.175 149.513 659.967 149.582 661.896 149.72C663.963 149.858 665.686 150.202 667.064 150.754C667.891 151.167 669.062 151.443 670.578 151.58C672.232 151.58 674.024 151.649 675.953 151.787C677.882 151.925 679.881 152.132 681.948 152.407C684.153 152.683 686.289 153.165 688.356 153.854C689.045 155.646 689.596 158.127 690.01 161.296C690.423 164.466 690.63 167.705 690.63 171.012C690.63 171.701 690.561 172.39 690.423 173.079C690.423 173.63 690.423 174.182 690.423 174.733C690.423 175.698 690.423 176.593 690.423 177.42C690.561 178.109 690.699 178.936 690.837 179.901C690.975 180.728 691.043 181.83 691.043 183.208C691.181 184.587 691.25 186.378 691.25 188.583ZM672.025 187.963C672.025 187.274 672.025 186.585 672.025 185.896C672.163 185.069 672.232 184.311 672.232 183.622C672.232 182.244 672.163 181.21 672.025 180.521C672.163 179.97 672.232 179.419 672.232 178.867C672.232 178.316 672.232 177.765 672.232 177.214C672.232 175.835 672.163 174.595 672.025 173.493C671.887 172.252 671.681 171.081 671.405 169.978C669.751 169.703 668.235 169.496 666.857 169.358C665.617 169.083 664.239 168.945 662.723 168.945C661.345 168.807 659.691 168.738 657.762 168.738C655.832 168.6 653.421 168.531 650.526 168.531C650.526 169.772 650.595 171.288 650.733 173.079C650.871 174.733 651.009 176.525 651.147 178.454C651.284 180.246 651.422 182.037 651.56 183.829C651.836 185.482 652.18 186.929 652.594 188.17C654.385 188.17 656.039 188.308 657.555 188.583C659.071 188.721 660.725 188.79 662.516 188.79H663.963H666.237C667.753 188.79 668.924 188.721 669.751 188.583C670.578 188.445 671.336 188.239 672.025 187.963Z" fill="black"/>
<path d="M577.286 183.002C577.562 183.691 577.7 184.38 577.7 185.069C577.7 185.759 577.7 186.517 577.7 187.343C577.7 188.032 577.7 188.79 577.7 189.617C577.7 190.306 577.631 191.064 577.493 191.891L576.46 199.747V202.02C576.46 208.773 575.633 214.01 573.979 217.731C572.463 221.314 570.12 223.106 566.95 223.106C563.781 223.106 561.369 222.21 559.715 220.419C558.199 218.627 557.441 216.629 557.441 214.424C557.441 212.219 557.51 210.496 557.648 209.256C557.924 207.878 558.13 206.362 558.268 204.708C558.544 203.054 558.751 200.918 558.888 198.3C559.164 195.681 559.302 192.029 559.302 187.343C559.302 186.241 559.233 185.414 559.095 184.863C559.095 184.174 559.026 183.485 558.888 182.796C558.751 181.969 558.613 181.004 558.475 179.902C558.475 178.799 558.475 177.214 558.475 175.147C558.475 173.907 558.544 172.804 558.682 171.839C558.819 170.737 559.026 169.772 559.302 168.945C558.751 167.016 558.475 164.673 558.475 161.917C558.475 159.023 558.199 157.025 557.648 155.922C557.51 154.268 557.372 152.408 557.235 150.341C557.235 148.273 557.235 146.413 557.235 144.759C557.235 142.279 558.199 140.556 560.129 139.591C562.196 138.489 564.608 137.938 567.364 137.938C570.534 137.938 572.945 139.04 574.599 141.245C575.288 144.415 575.839 147.584 576.253 150.754C576.804 153.786 577.08 156.542 577.08 159.023C577.08 160.401 577.011 161.435 576.873 162.124C577.149 163.64 577.355 165.224 577.493 166.878C577.631 168.394 577.7 169.979 577.7 171.633C577.7 173.7 577.631 175.767 577.493 177.834C577.355 179.764 577.286 181.486 577.286 183.002ZM521.265 203.674C518.647 204.088 515.684 204.777 512.377 205.741C509.207 206.706 505.899 207.395 502.454 207.809C501.903 207.671 501.145 207.602 500.18 207.602C498.94 207.602 497.562 207.74 496.046 208.015C494.668 208.291 493.152 208.429 491.498 208.429C490.12 208.429 488.604 208.222 486.95 207.809C486.399 208.084 485.848 208.222 485.296 208.222C484.883 208.222 484.469 208.222 484.056 208.222C482.678 208.222 481.3 208.084 479.922 207.809C478.544 207.533 477.096 207.257 475.581 206.982C475.305 206.982 475.098 207.051 474.96 207.188C474.823 207.188 474.685 207.188 474.547 207.188C470.964 207.188 467.863 205.948 465.245 203.468C462.626 200.849 461.317 197.748 461.317 194.165C461.317 193.476 461.386 192.787 461.524 192.098C461.661 191.271 461.868 190.513 462.144 189.824C462.144 188.032 462.075 186.379 461.937 184.863C461.937 183.347 461.937 181.762 461.937 180.108C461.937 179.281 461.937 178.454 461.937 177.628C462.075 176.801 462.144 175.974 462.144 175.147L462.971 162.951C463.384 157.162 463.66 154.131 463.798 153.855C464.073 153.166 465.176 152.132 467.105 150.754C469.034 149.376 471.239 148.687 473.72 148.687C476.338 148.687 479.095 149.72 481.989 151.788C481.989 153.717 481.989 155.44 481.989 156.956C482.127 158.472 482.196 159.85 482.196 161.09C482.196 162.744 481.989 164.811 481.575 167.292C481.3 169.634 481.162 172.184 481.162 174.94C481.162 176.318 481.231 177.352 481.369 178.041C480.955 179.144 480.68 180.453 480.542 181.969C480.404 183.485 480.335 184.932 480.335 186.31V188.377C481.989 188.515 483.711 188.79 485.503 189.204C487.432 189.48 489.5 189.617 491.705 189.617C494.737 189.617 497.286 189.48 499.353 189.204C501.558 188.928 503.625 188.584 505.555 188.17C507.622 187.757 509.689 187.412 511.756 187.137C513.824 186.861 516.304 186.723 519.198 186.723C520.163 187.275 521.472 188.446 523.126 190.237C524.78 192.029 525.607 193.821 525.607 195.612C525.607 197.955 524.16 200.642 521.265 203.674Z" fill="black"/>
<path d="M441.404 192.924L429.621 195.198C427.692 195.474 425.9 195.681 424.246 195.818C422.73 195.956 421.352 196.025 420.112 196.025H418.665L400.68 197.886C400.267 205.19 399.853 211.047 399.44 215.457C399.026 219.867 398.406 223.312 397.579 225.793C396.753 228.135 395.65 229.72 394.272 230.547C392.894 231.374 391.102 231.788 388.897 231.788C386.417 231.788 384.143 231.374 382.076 230.547C380.146 229.72 379.181 227.929 379.181 225.173C379.181 224.483 379.181 223.657 379.181 222.692C379.319 221.727 379.457 220.694 379.595 219.591L381.042 210.702C381.042 210.427 380.973 210.082 380.835 209.669C380.835 209.255 380.835 208.842 380.835 208.428C380.835 207.601 380.835 206.568 380.835 205.327C380.973 203.949 381.042 202.571 381.042 201.193C381.18 199.815 381.249 198.644 381.249 197.679C381.386 196.576 381.455 195.818 381.455 195.405V194.578V186.103C381.593 183.76 381.662 181.899 381.662 180.521C381.8 179.005 381.869 177.834 381.869 177.007C381.869 176.593 381.8 175.767 381.662 174.526C381.524 173.286 381.318 171.908 381.042 170.392C380.904 168.876 380.766 167.429 380.628 166.051C380.491 164.535 380.422 163.295 380.422 162.33C380.422 161.916 380.422 161.572 380.422 161.296C380.56 160.883 380.628 160.538 380.628 160.263C380.353 159.574 380.077 158.678 379.802 157.575C379.526 156.335 379.25 154.957 378.975 153.441L377.734 147.653C377.459 146.964 377.252 146.275 377.114 145.586C376.976 144.897 376.908 144.207 376.908 143.518C376.908 138.695 380.491 136.283 387.657 136.283C391.24 136.283 394.134 137.455 396.339 139.797C397.166 141.727 397.855 144.001 398.406 146.619C399.095 149.238 399.578 151.856 399.853 154.475C400.267 157.093 400.542 159.642 400.68 162.123C400.956 164.466 401.094 166.464 401.094 168.118C401.094 168.807 401.094 169.427 401.094 169.978C401.094 170.53 401.025 171.012 400.887 171.425C401.163 172.115 401.3 172.804 401.3 173.493C401.3 174.182 401.3 174.94 401.3 175.767V179.074C403.368 179.074 405.228 179.005 406.882 178.867C408.536 178.592 410.189 178.316 411.843 178.041C413.497 177.627 415.219 177.351 417.011 177.214C418.803 176.938 420.801 176.8 423.006 176.8H424.866C425.969 176.525 427.347 176.318 429.001 176.18C430.792 176.042 432.584 175.973 434.376 175.973C435.34 175.973 436.512 176.042 437.89 176.18C439.268 176.318 440.508 176.731 441.611 177.42C442.713 178.109 443.678 179.212 444.505 180.728C445.332 182.106 445.745 184.104 445.745 186.723C445.745 189.203 444.298 191.271 441.404 192.924ZM352.101 188.583C352.515 190.099 352.721 191.615 352.721 193.131C352.721 196.714 351.619 200.573 349.414 204.707C345.555 205.534 342.041 205.879 338.871 205.741C335.839 205.603 332.601 205.879 329.155 206.568C326.813 206.981 324.883 207.257 323.367 207.395C321.851 207.532 320.749 207.601 320.06 207.601H314.685C313.307 207.601 311.24 207.326 308.483 206.774C305.727 206.223 303.04 205.672 300.421 205.121C300.008 204.569 299.457 203.605 298.768 202.227C298.079 200.711 297.389 199.057 296.7 197.265C296.149 195.474 295.598 193.751 295.047 192.097C294.633 190.306 294.427 188.859 294.427 187.756C294.427 187.205 294.427 186.654 294.427 186.103C294.564 185.551 294.633 185 294.633 184.449C294.633 182.795 294.427 181.348 294.013 180.108C293.6 178.867 293.255 177.903 292.979 177.214C292.979 175.56 292.842 174.32 292.566 173.493C292.29 172.666 291.808 170.805 291.119 167.911C290.843 167.222 290.706 166.533 290.706 165.844C290.706 165.017 290.706 164.19 290.706 163.363C290.706 161.296 290.774 159.436 290.912 157.782C291.188 156.128 291.877 154.75 292.979 153.648C294.082 152.407 295.805 151.512 298.147 150.96C300.49 150.271 303.867 149.927 308.277 149.927H310.551C311.378 149.789 312.342 149.72 313.445 149.72C314.685 149.582 315.994 149.513 317.372 149.513C319.026 149.513 320.818 149.582 322.747 149.72C324.814 149.858 326.537 150.202 327.915 150.754C328.742 151.167 329.913 151.443 331.429 151.58C333.083 151.58 334.875 151.649 336.804 151.787C338.733 151.925 340.732 152.132 342.799 152.407C345.004 152.683 347.14 153.165 349.207 153.854C349.896 155.646 350.447 158.127 350.861 161.296C351.274 164.466 351.481 167.705 351.481 171.012C351.481 171.701 351.412 172.39 351.274 173.079C351.274 173.63 351.274 174.182 351.274 174.733C351.274 175.698 351.274 176.593 351.274 177.42C351.412 178.109 351.55 178.936 351.688 179.901C351.826 180.728 351.894 181.83 351.894 183.208C352.032 184.587 352.101 186.378 352.101 188.583ZM332.876 187.963C332.876 187.274 332.876 186.585 332.876 185.896C333.014 185.069 333.083 184.311 333.083 183.622C333.083 182.244 333.014 181.21 332.876 180.521C333.014 179.97 333.083 179.419 333.083 178.867C333.083 178.316 333.083 177.765 333.083 177.214C333.083 175.835 333.014 174.595 332.876 173.493C332.738 172.252 332.532 171.081 332.256 169.978C330.602 169.703 329.086 169.496 327.708 169.358C326.468 169.083 325.09 168.945 323.574 168.945C322.196 168.807 320.542 168.738 318.613 168.738C316.683 168.6 314.272 168.531 311.377 168.531C311.377 169.772 311.446 171.288 311.584 173.079C311.722 174.733 311.86 176.525 311.998 178.454C312.135 180.246 312.273 182.037 312.411 183.829C312.687 185.482 313.031 186.929 313.445 188.17C315.236 188.17 316.89 188.308 318.406 188.583C319.922 188.721 321.576 188.79 323.367 188.79H324.814H327.088C328.604 188.79 329.776 188.721 330.602 188.583C331.429 188.445 332.187 188.239 332.876 187.963Z" fill="black"/>
<defs>
<clipPath id="clip0_645_388">
<rect width="188.767" height="109.252" fill="white" transform="translate(207.933 39) rotate(73.0112)"/>
</clipPath>
<clipPath id="clip1_645_388">
<rect width="188.767" height="109.252" fill="white" transform="translate(55.1548 289.037) rotate(-106.989)"/>
</clipPath>
</defs>
</svg>
